<svg xmlns="http://www.w3.org/2000/svg" width="80" height="40" viewBox="0 0 80 40">
    <g fill="none" fill-rule="evenodd">
        <g fill="#FFF">
            <g>
                <g>
                    <g>
                        <path fill-rule="nonzero" d="M19.86 39.767C8.989 39.767.144 30.918.144 20.045.143 9.172 8.988.327 19.86.327s19.718 8.845 19.718 19.718c.004 10.877-8.845 19.722-19.718 19.722zm0-37.854c-10 0-18.135 8.136-18.135 18.132 0 10 8.136 18.136 18.136 18.136s18.136-8.136 18.136-18.136c0-9.996-8.136-18.132-18.136-18.132z" transform="translate(-32 -103) translate(32 103)"/>
                        <path fill-rule="nonzero" d="M11.864 37.617l-.354-1.29c2.893-.8 5.44-2.337 7.46-4.372-.733-.852-1.39-1.77-1.958-2.745-2.42 2.884-5.965 4.807-9.972 5.072l-.087-1.336c3.826-.25 7.183-2.17 9.377-5.019-.633-1.318-1.113-2.717-1.415-4.17-1.496 3.899-5.28 6.674-9.701 6.674-.532 0-1.064-.041-1.583-.121l.206-1.322c.448.07.91.104 1.377.104 4.988 0 9.047-4.059 9.047-9.047s-4.06-9.047-9.047-9.047c-.463 0-.925.035-1.377.105L3.63 9.78c.519-.08 1.05-.122 1.583-.122 4.42 0 8.205 2.78 9.7 6.678.307-1.454.787-2.855 1.423-4.174-2.212-2.876-5.614-4.8-9.488-5.022l.076-1.336c4.063.233 7.652 2.16 10.098 5.075.567-.97 1.22-1.885 1.95-2.737-1.996-2.018-4.51-3.545-7.36-4.355L11.98 2.5c3.058.866 5.757 2.5 7.906 4.66 2.15-2.156 4.849-3.79 7.906-4.66l.366 1.287c-2.853.807-5.367 2.337-7.364 4.355.73.848 1.384 1.767 1.951 2.737 2.442-2.911 6.032-4.842 10.098-5.075l.076 1.336c-3.878.222-7.276 2.146-9.488 5.022.636 1.322 1.116 2.724 1.422 4.178 1.496-3.903 5.28-6.682 9.701-6.682.532 0 1.064.042 1.583.122l-.206 1.322c-.448-.07-.91-.105-1.373-.105-4.988 0-9.047 4.06-9.047 9.047 0 4.988 4.059 9.047 9.047 9.047.462 0 .925-.035 1.373-.104l.206 1.322c-.519.08-1.05.121-1.583.121-4.42 0-8.205-2.779-9.7-6.678-.303 1.454-.783 2.856-1.416 4.174 2.194 2.849 5.55 4.769 9.377 5.02l-.087 1.335c-4.007-.265-7.551-2.185-9.972-5.072-.567.974-1.225 1.893-1.958 2.748 2.02 2.035 4.566 3.572 7.46 4.372l-.354 1.29c-3.106-.858-5.84-2.5-8.014-4.68-2.185 2.177-4.919 3.818-8.025 4.677zm6.025-9.572c.56 1.04 1.228 2.018 1.986 2.915.762-.9 1.426-1.878 1.986-2.915-.89-1.311-1.572-2.779-1.986-4.344-.414 1.569-1.092 3.033-1.986 4.344zm-.675-14.58c-.87 2.041-1.346 4.274-1.346 6.584 0 2.313.473 4.539 1.342 6.58 1.148-1.933 1.81-4.187 1.81-6.58-.004-2.4-.658-4.65-1.806-6.585zm5.329 0c-1.148 1.933-1.802 4.184-1.802 6.584 0 2.393.657 4.647 1.809 6.58.866-2.038 1.339-4.267 1.339-6.58 0-2.31-.477-4.543-1.346-6.585zm-4.647-1.42c.89 1.308 1.565 2.772 1.982 4.341.418-1.565 1.092-3.03 1.983-4.34-.56-1.037-1.224-2.011-1.983-2.905-.758.897-1.422 1.871-1.982 2.904zM36.139 27.28c-3.979 0-7.214-3.235-7.214-7.214 0-3.979 3.238-7.214 7.214-7.214.515 0 1.03.056 1.524.164l-.282 1.307c-.404-.086-.821-.132-1.242-.132-3.242 0-5.878 2.637-5.878 5.879 0 3.241 2.636 5.878 5.878 5.878.404 0 .804-.038 1.186-.118l.272 1.31c-.474.091-.964.14-1.458.14zm-32.522 0c-.494 0-.984-.049-1.454-.146l.272-1.311c.379.08.779.118 1.182.118 3.242 0 5.879-2.637 5.879-5.878 0-3.242-2.637-5.879-5.879-5.879-.42 0-.838.046-1.241.133l-.282-1.308c.497-.108 1.009-.164 1.523-.164 3.98 0 7.218 3.238 7.218 7.214 0 3.983-3.238 7.221-7.218 7.221zm34.345-2.637c-2.525 0-4.578-2.055-4.578-4.577 0-2.525 2.053-4.577 4.578-4.577.104 0 .205.003.306.01l-.084 1.336c-.073-.004-.15-.007-.226-.007-1.788 0-3.238 1.454-3.238 3.242 0 1.787 1.454 3.241 3.238 3.241l.153-.003v1.339l-.15-.004zm-36.167 0l-.153-.003v-1.336l.153.004c1.788 0 3.238-1.454 3.238-3.242s-1.454-3.242-3.238-3.242c-.077 0-.15.004-.226.007l-.084-1.335c.101-.007.205-.01.306-.01 2.526 0 4.578 2.051 4.578 4.577.003 2.528-2.052 4.58-4.574 4.58z" transform="translate(-32 -103) translate(32 103)"/>
                        <path d="M0.939 19.29H38.821V20.802999999999997H0.939z" transform="translate(-32 -103) translate(32 103)"/>
                    </g>
                    <g>
                        <path d="M2.706 2.584L2.706 5.103 8.351 5.103 8.351 7.468 2.706 7.468 2.706 12.049.104 12.049.104.216 9.113.216 9.113 2.581 2.706 2.581zM21.45 12.052L21.45 4.327 18.122 9.381 18.056 9.381 14.758 4.379 14.758 12.052 12.205 12.052 12.205.219 15.012.219 18.122 5.221 21.231.219 24.038.219 24.038 12.052zM28.515 12.052L28.515.219 31.117.219 31.117 12.052z" transform="translate(-32 -103) translate(32 103) translate(48.348 13.913)"/>
                    </g>
                </g>
            </g>
        </g>
    </g>
</svg>
