<svg xmlns="http://www.w3.org/2000/svg" width="28" height="28" viewBox="0 0 28 28">
    <g fill="none" fill-rule="evenodd">
        <g>
            <g>
                <g transform="translate(-327 -507) translate(327 507)">
                    <circle cx="14" cy="14" r="14" fill="#EEF4FB"/>
                    <path fill="#303193" fill-rule="nonzero" d="M9.758 8.344l4.241 4.241 4.243-4.241c.36-.361.926-.391 1.32-.085l.095.084c.39.39.393 1.022 0 1.415l-4.244 4.241 4.243 4.243c.361.36.391.926.085 1.32l-.084.095c-.39.39-1.022.393-1.415 0l-4.243-4.244-4.241 4.243c-.36.361-.926.391-1.32.085l-.095-.084c-.39-.39-.393-1.022 0-1.415l4.242-4.243-4.241-4.241c-.361-.36-.391-.926-.085-1.32l.084-.095c.39-.39 1.022-.393 1.415 0z"/>
                </g>
            </g>
        </g>
    </g>
</svg>
