<svg xmlns="http://www.w3.org/2000/svg" width="22" height="22" viewBox="0 0 22 22">
    <g fill="none" fill-rule="evenodd">
        <g fill="#303193" fill-rule="nonzero">
            <g>
                <g>
                    <g>
                        <path d="M15.37 6.49l.075.065c.307.307.308.803 0 1.112L12.11 11l3.333 3.333c.284.284.307.728.066 1.037l-.065.075c-.307.307-.803.308-1.112 0L11 12.11l-3.333 3.333c-.284.284-.728.307-1.037.066l-.075-.065c-.307-.307-.308-.803 0-1.112L9.89 11 6.556 7.667c-.284-.284-.307-.728-.066-1.037l.065-.075c.307-.307.803-.308 1.112 0L11 9.89l3.333-3.333c.284-.284.728-.307 1.037-.066z" transform="translate(-327 -96) translate(16 89) translate(311 7)"/>
                    </g>
                </g>
            </g>
        </g>
    </g>
</svg>
