<svg xmlns="http://www.w3.org/2000/svg" width="28" height="28" viewBox="0 0 28 28">
    <g fill="none" fill-rule="evenodd">
        <g fill="#3A66E3" fill-rule="nonzero">
            <g>
                <path d="M17.28 4c4.182 0 7.587 3.324 7.716 7.474l.004.246v.926c0 2.476-1.28 4.615-3.44 6.378l-.253.201c-.618.481-3.44 2.343-8.465 5.587L11 26v-5.641l-.769-.008c-3.87-.242-6.969-3.336-7.215-7.206l-.012-.254L3 12.646v-.926c0-4.182 3.324-7.587 7.474-7.716L10.72 4h6.56zm0 2h-6.56c-3.086 0-5.6 2.443-5.716 5.5L5 11.72v.895l.003.214c.09 2.869 2.298 5.216 5.123 5.507l.19.015 2.684.03v3.947l4.411-2.873c1.419-.934 2.3-1.53 2.626-1.776l.042-.032c1.87-1.455 2.835-3.05 2.916-4.766l.005-.235v-.926c0-3.086-2.443-5.6-5.5-5.716L17.28 6z" transform="translate(-30 -350) translate(30 350)"/>
            </g>
        </g>
    </g>
</svg>
