<svg xmlns="http://www.w3.org/2000/svg" width="18" height="18" viewBox="0 0 18 18">
    <g fill="none" fill-rule="evenodd">
        <g fill="#303193" fill-rule="nonzero">
            <g>
                <path d="M4.03 1.128L5.704 5.54c.19.408.297.866.297 1.35C6 8.608 4.657 10 3 10S0 8.608 0 6.89c0-.475.103-.926.287-1.33l1.68-4.432c.57-1.503 1.494-1.505 2.064 0zM3 1.194l-.018.033c-.026.05-.051.107-.077.17l-.039.097-1.706 4.495c-.128.279-.195.584-.195.901C.964 8.055 1.876 9 3 9s2.036-.945 2.036-2.11c0-.268-.048-.529-.158-.812l-.073-.172-1.672-4.412c-.025-.068-.051-.13-.077-.187l-.057-.113zM9.264 9.352L14.124 1.572 13.16 1.053 8.3 8.832zM8.861 0c.563 0 1.016.162 1.36.487.304.29.473.67.507 1.14l.006.181v.425l-.006.174c-.034.452-.203.821-.508 1.109-.343.323-.792.484-1.347.484-.56 0-1.011-.162-1.356-.487-.306-.29-.477-.668-.51-1.135L7 2.198v-.42l.006-.172c.034-.45.203-.82.508-1.113C7.857.164 8.306 0 8.861 0zm0 1c-.307 0-.507.073-.655.215-.098.095-.159.203-.186.33l-.014.098L8 1.778v.42c0 .287.068.46.203.587.15.141.355.215.67.215.311 0 .513-.073.661-.212.095-.09.154-.194.18-.32l.014-.098.006-.137v-.425c0-.292-.068-.468-.202-.595C9.385 1.073 9.18 1 8.862 1zM13.867 6c.56 0 1.011.16 1.356.482.306.285.477.666.51 1.143l.007.183v.425l-.006.173c-.034.449-.201.818-.502 1.107-.339.325-.79.487-1.353.487-.567 0-1.022-.163-1.365-.49-.305-.291-.474-.666-.508-1.124L12 8.21v-.437l.006-.174c.035-.452.206-.823.514-1.112.347-.325.796-.487 1.347-.487zm0 1c-.307 0-.51.073-.663.217-.098.091-.157.197-.184.322l-.014.097-.006.137v.437c0 .275.067.445.204.576.147.14.353.214.675.214.317 0 .518-.073.66-.21.096-.09.155-.197.181-.323l.014-.098.006-.136v-.425c0-.298-.068-.473-.199-.595-.15-.14-.357-.213-.674-.213z" transform="translate(1 4)"/>
            </g>
        </g>
    </g>
</svg>
