<svg xmlns="http://www.w3.org/2000/svg" width="28" height="28" viewBox="0 0 28 28">
    <g fill="none" fill-rule="evenodd">
        <g fill="#303193" fill-rule="nonzero">
            <g>
                <g>
                    <path d="M13.76 4.004C10.004 4.128 7 7.149 7 10.833 7 12.3 8.002 14.51 9.986 17.39c.667.968 1.414 1.966 2.221 2.971l.466.573c.15.183.297.359.438.525l.402.467.486.555.487-.554c.318-.364.683-.796 1.071-1.274l.236-.292c.807-1.005 1.554-2.003 2.221-2.97l.44-.654C20.146 14.175 21 12.188 21 10.833c0-3.684-3.005-6.705-6.76-6.829L14 4l-.24.004zm.505-2C19.104 2.142 23 6.044 23 10.833c0 1.984-1.142 4.502-3.339 7.692-.695 1.01-1.472 2.048-2.309 3.09l-.483.594c-.157.19-.31.373-.457.547l-.421.49L14 25.516l-1.992-2.273c-.4-.457-.866-1.014-1.36-1.63-.837-1.041-1.614-2.078-2.31-3.089C6.143 15.335 5 12.817 5 10.833c0-4.789 3.896-8.691 8.735-8.83L14 2l.265.004z" transform="translate(-331 -48) translate(331 48)"/>
                    <path d="M14 8c-1.657 0-3 1.343-3 3s1.343 3 3 3 3-1.343 3-3-1.343-3-3-3zm0 2c.552 0 1 .448 1 1s-.448 1-1 1-1-.448-1-1 .448-1 1-1z" transform="translate(-331 -48) translate(331 48)"/>
                </g>
            </g>
        </g>
    </g>
</svg>
