<svg xmlns="http://www.w3.org/2000/svg" width="18" height="18" viewBox="0 0 18 18">
    <g fill="none" fill-rule="evenodd">
        <g fill="#303193" fill-rule="nonzero">
            <g>
                <path d="M4.03 1.128L5.704 5.54c.19.408.297.866.297 1.35C6 8.608 4.657 10 3 10S0 8.608 0 6.89c0-.475.103-.926.287-1.33l1.68-4.432c.57-1.503 1.494-1.505 2.064 0zm-.993.21L3 1.257l-.038.081-.058.144-1.706 4.494C1.068 6.258 1 6.568 1 6.89 1 8.063 1.904 9 3 9s2-.937 2-2.11c0-.262-.045-.516-.146-.788l-.086-.208-1.672-4.412-.059-.144z" transform="translate(6 4)"/>
            </g>
        </g>
    </g>
</svg>
