<svg xmlns="http://www.w3.org/2000/svg" width="28" height="28" viewBox="0 0 28 28">
    <g fill="none" fill-rule="evenodd">
        <g fill="#303193" fill-rule="nonzero">
            <g>
                <g>
                    <path d="M12.5 3c5.247 0 9.5 4.253 9.5 9.5 0 2.394-.89 4.652-2.468 6.388l-.072.07-.047.04 4.299 4.3c.36.36.388.927.083 1.32l-.084.094c-.36.36-.927.388-1.32.083l-.094-.083-4.396-4.397-.274.184C16.112 21.472 14.344 22 12.5 22 7.253 22 3 17.747 3 12.5S7.253 3 12.5 3zm0 2C8.358 5 5 8.358 5 12.5c0 4.142 3.358 7.5 7.5 7.5 1.442 0 2.83-.407 4.03-1.173l.209-.14 1.344-1.182.173-.196c1.06-1.267 1.67-2.838 1.738-4.497L20 12.5C20 8.358 16.642 5 12.5 5z" transform="translate(-293 -48) translate(293 48)"/>
                </g>
            </g>
        </g>
    </g>
</svg>
