<svg xmlns="http://www.w3.org/2000/svg" width="22" height="22" viewBox="0 0 22 22">
    <g fill="none" fill-rule="evenodd" opacity=".5">
        <g fill="#303193" fill-rule="nonzero">
            <g>
                <g>
                    <g>
                        <path d="M9.821 2.357c4.123 0 7.465 3.342 7.465 7.464 0 1.881-.7 3.655-1.94 5.02l-.056.055-.037.031 3.378 3.378c.283.283.305.73.065 1.037l-.066.074c-.283.284-.728.305-1.037.066l-.074-.066-3.454-3.454-.215.144c-1.19.765-2.58 1.18-4.029 1.18-4.122 0-7.464-3.342-7.464-7.465 0-4.122 3.342-7.464 7.464-7.464zm0 1.572c-3.254 0-5.892 2.638-5.892 5.892 0 3.255 2.638 5.893 5.892 5.893 1.133 0 2.224-.32 3.166-.921l.165-.11 1.056-.93.136-.153c.833-.996 1.312-2.23 1.365-3.533l.005-.246c0-3.254-2.638-5.892-5.893-5.892z" transform="translate(-24 -96) translate(16 89) translate(8 7)"/>
                    </g>
                </g>
            </g>
        </g>
    </g>
</svg>
