<svg xmlns="http://www.w3.org/2000/svg" width="28" height="28" viewBox="0 0 28 28">
    <g fill="none" fill-rule="evenodd">
        <g fill="#3A66E3" fill-rule="nonzero">
            <g>
                <path d="M15 3v2l-.002.055c1.738.191 3.326.878 4.622 1.915l.037-.041 1.414-1.414 1.414 1.414-1.414 1.414-.041.037c1.037 1.296 1.724 2.885 1.915 4.623L23 13h2v2h-2l-.055-.002c-.187 1.68-.844 3.27-1.918 4.62l.044.039 1.414 1.414-1.414 1.414-1.414-1.414-.062-.069-.34.299-.113.086c-1.234.86-2.654 1.393-4.144 1.558L15 23v2h-2v-2l.003-.055c-1.738-.191-3.327-.878-4.623-1.915l-.037.041-1.414 1.414-1.414-1.414 1.414-1.414.041-.037c-1.037-1.296-1.724-2.884-1.915-4.622L5 15H3v-2h2l.055.003c.191-1.738.878-3.327 1.915-4.623l-.041-.037L5.515 6.93l1.414-1.414 1.414 1.414.037.041c1.296-1.037 2.885-1.724 4.623-1.915l-.002-.027L13 3h2zm-1 4c-3.866 0-7 3.134-7 7s3.134 7 7 7c1.338 0 2.628-.376 3.708-1.058l.27-.18 1.204-1.056C20.353 17.417 21 15.752 21 14c0-3.866-3.134-7-7-7z" transform="translate(-30 -191) translate(30 191)"/>
                <path d="M14 11c-1.657 0-3 1.343-3 3s1.343 3 3 3 3-1.343 3-3-1.343-3-3-3zm0 2c.552 0 1 .448 1 1s-.448 1-1 1-1-.448-1-1 .448-1 1-1z" transform="translate(-30 -191) translate(30 191)"/>
            </g>
        </g>
    </g>
</svg>
