<svg xmlns="http://www.w3.org/2000/svg" width="28" height="28" viewBox="0 0 28 28">
    <g fill="none" fill-rule="evenodd">
        <g>
            <rect width="24" height="2" x="2" y="18" fill="#303193" fill-rule="nonzero" rx="1"/>
            <path fill="#FFA000" d="M14 6c.552 0 1 .448 1 1l.001 1.071c1.185.17 2.275.637 3.191 1.322l.758-.757c.39-.39 1.023-.39 1.414 0 .39.39.39 1.024 0 1.414l-.758.758c.687.916 1.153 2.006 1.323 3.192H22c.552 0 1 .448 1 1s-.448 1-1 1h-2c-.552 0-1-.448-1-1 0-2.685-2.116-4.875-4.771-4.995L13.988 10l-.21.006c-2.587.113-4.663 2.191-4.773 4.778L9 15c0 .513-.386.936-.883.993L8 16H6c-.552 0-1-.448-1-1s.448-1 1-1h1.07c.17-1.186.637-2.276 1.324-3.192l-.758-.758c-.39-.39-.39-1.023 0-1.414.39-.39 1.024-.39 1.414 0l.758.757c.916-.686 2.006-1.152 3.192-1.322V7c0-.552.448-1 1-1z"/>
        </g>
    </g>
</svg>
