<svg xmlns="http://www.w3.org/2000/svg" width="18" height="18" viewBox="0 0 18 18">
    <g fill="none" fill-rule="evenodd">
        <g fill="#303193" fill-rule="nonzero">
            <g>
                <path d="M2.5 0C3.328 0 4 .696 4 1.556v6.777c.607.473 1 1.226 1 2.074C5 11.84 3.88 13 2.5 13S0 11.84 0 10.407c0-.848.393-1.6 1-2.074V1.556C1 .696 1.672 0 2.5 0zm0 1c-.238 0-.448.19-.492.454L2 1.556v7.266l-.385.3C1.232 9.42 1 9.891 1 10.407 1 11.295 1.68 12 2.5 12S4 11.295 4 10.407c0-.459-.183-.882-.493-1.18l-.122-.105-.385-.3V1.556C3 1.24 2.768 1 2.5 1z" transform="translate(6.5 3)"/>
                <path d="M1 6H4V7H1z" transform="translate(6.5 3)"/>
            </g>
        </g>
    </g>
</svg>
