<svg xmlns="http://www.w3.org/2000/svg" width="18" height="18" viewBox="0 0 18 18">
    <g fill="none" fill-rule="evenodd">
        <g fill="#303193" fill-rule="nonzero">
            <g>
                <path d="M6.71 7.685c0 1.205.959 2.185 2.148 2.185s2.148-.98 2.148-2.185c0-1.204-.96-2.185-2.148-2.185H3.5c-.276 0-.5.224-.5.5s.224.5.5.5h5.358c.632 0 1.148.528 1.148 1.185S9.49 8.87 8.858 8.87c-.632 0-1.149-.528-1.149-1.185 0-.276-.224-.5-.5-.5s-.5.224-.5.5zM5.998 4.5H.492C.22 4.5 0 4.27 0 3.985c0-.284.22-.515.492-.515h5.511c.632 0 1.148-.544 1.148-1.22 0-.676-.516-1.22-1.148-1.22-.631 0-1.148.544-1.148 1.22 0 .284-.224.515-.5.515s-.5-.23-.5-.515c0-1.24.96-2.25 2.148-2.25 1.189 0 2.148 1.01 2.148 2.25 0 .45-.127.87-.344 1.221h3.578c.622 0 1.13-.545 1.13-1.221s-.508-1.22-1.13-1.22c-.621 0-1.13.544-1.13 1.22 0 .284-.22.515-.492.515s-.492-.23-.492-.515c0-1.24.944-2.25 2.114-2.25S13.5 1.01 13.5 2.25s-.944 2.25-2.115 2.25H5.998z" transform="translate(2 4)"/>
            </g>
        </g>
    </g>
</svg>
